<svg width="18" height="18" viewBox="0 0 18 18" fill="none" xmlns="http://www.w3.org/2000/svg">
<path d="M2.53018 17.4534H8.16405V11.4901H6.13991V9.52419H8.16405V7.06677C8.16405 5.71174 9.29908 4.60936 10.6942 4.60936H13.2244V6.57529H11.2003C10.6422 6.57529 10.1882 7.01622 10.1882 7.55825V9.52419H13.1331L12.7957 11.4901H10.1882V17.4534H14.7425C16.1377 17.4534 17.2727 16.3511 17.2727 14.996V3.13491C17.2727 1.77987 16.1377 0.67749 14.7425 0.67749H2.53018C1.13502 0.67749 0 1.77987 0 3.13491V14.996C0 16.3511 1.13502 17.4534 2.53018 17.4534ZM1.01207 3.13491C1.01207 2.32191 1.69311 1.66046 2.53018 1.66046H14.7425C15.5796 1.66046 16.2606 2.32191 16.2606 3.13491V14.996C16.2606 15.809 15.5796 16.4705 14.7425 16.4705H11.2003V12.4731H13.6531L14.3278 8.54122H11.2003V7.55825H14.2365V3.62639H10.6942C8.74099 3.62639 7.15198 5.1697 7.15198 7.06677V8.54122H5.12783V12.4731H7.15198V16.4705H2.53018C1.69311 16.4705 1.01207 15.809 1.01207 14.996V3.13491Z" fill="white"/>
</svg>
