<svg width="18" height="15" viewBox="0 0 18 15" fill="none" xmlns="http://www.w3.org/2000/svg">
<path d="M17.2727 2.6296C16.1862 2.67824 16.2099 2.67427 16.0871 2.68426L16.7306 0.899431C16.7306 0.899431 14.722 1.61707 14.2128 1.74545C12.8755 0.578047 10.8877 0.526467 9.46657 1.37479C8.30282 2.06965 7.67818 3.2629 7.88652 4.65761C5.62161 4.35235 3.7133 3.30962 2.20666 1.5518L1.73014 0.995935L1.37407 1.63102C0.924043 2.43352 0.774604 3.35109 0.953167 4.21464C1.02644 4.56891 1.15097 4.90681 1.32347 5.2232L0.914687 5.06936L0.866192 5.73273C0.817038 6.4066 1.04805 7.19323 1.48424 7.83676C1.60706 8.018 1.7652 8.21702 1.96563 8.41336L1.75439 8.38187L2.01215 9.14201C2.35096 10.1407 3.05467 10.9134 3.9679 11.3429C3.05585 11.7188 2.31907 11.9587 1.10801 12.3456L0 12.6994L1.02341 13.2428C1.41361 13.45 2.79242 14.1421 4.15477 14.3497C7.18308 14.811 10.5926 14.4353 12.888 12.4275C14.8213 10.7364 15.4557 8.33081 15.3239 5.82744C15.304 5.44846 15.4109 5.08676 15.6249 4.80915C16.0536 4.25329 17.2701 2.63332 17.2727 2.6296ZM14.8157 4.2204C14.4602 4.68129 14.2822 5.26992 14.3141 5.87761C14.4471 8.40274 13.7397 10.361 12.2114 11.6977C10.4262 13.2593 7.54666 13.8723 4.31146 13.3794C3.72556 13.2902 3.12003 13.0904 2.61887 12.8908C3.63424 12.5515 4.41833 12.2491 5.68461 11.667L7.45231 10.8544L5.50064 10.7331C4.56579 10.6749 3.78737 10.2349 3.30887 9.52048C3.56294 9.50614 3.80792 9.46621 4.05185 9.40016L5.91324 8.89665L4.0363 8.45022C3.12425 8.23328 2.60437 7.70327 2.32882 7.29677C2.14789 7.02966 2.02968 6.75601 1.95878 6.50374C2.14696 6.55276 2.36638 6.58771 2.72021 6.62175L4.45747 6.78865L3.08102 5.74578C2.08924 4.99448 1.6918 3.86573 1.98316 2.78063C5.07842 5.89873 8.71265 5.66438 9.07847 5.74681C8.99796 4.98719 8.99585 4.98539 8.97476 4.91308C8.50629 3.30463 9.53299 2.48792 9.99606 2.21146C10.9633 1.6341 12.4987 1.54706 13.5622 2.49829C13.7919 2.70358 14.1025 2.78434 14.3932 2.71421C14.6541 2.65123 14.8682 2.58455 15.0779 2.51198L14.6414 3.72251L15.1986 3.7229C15.0935 3.85985 14.9673 4.0238 14.8157 4.2204Z" fill="white"/>
</svg>
